# xmcd
#
# Track frame offsets: 
#        150
#        19477
#        43230
#        63645
#        82257
#        103590
#        122159
#        146373
#        166594
#        185497
#
# Disc length: 2811 seconds
#
# Revision: 0
# Processed by: cddbd v1.5.1PL0 Copyright (c) Steve Scherf et al.
# Submitted via: ExactAudioCopy v0.95a4
#
DISCID=8d0af90a
DTITLE=Tony Rio and Voodoo Chili - I Love The Blues
DYEAR=2003
DGENRE=Blues
TTITLE0=Get Ready For The Blues
TTITLE1=Evil
TTITLE2=The Groove
TTITLE3=I Love The Blues
TTITLE4=One Stop Destination
TTITLE5=La Bajada
TTITLE6=High Time
TTITLE7=Cry Mercy
TTITLE8=War
TTITLE9=You and Me
EXTD=
EXTT0=
EXTT1=
EXTT2=
EXTT3=
EXTT4=
EXTT5=
EXTT6=
EXTT7=
EXTT8=
EXTT9=
PLAYORDER=
